<?xml version="1.0" encoding="UTF-8"?>
<!-- Created with EazyDraw for Mac ( http://www.eazydraw.com/ ) -->

<svg
    version="1.1"
    xmlns:dc="http://purl.org/dc/elements/1.1/"
    xmlns:cc="http://creativecommons.org/ns#"
    xmlns:rdf="http://www.w3.org/1999/02/22-rdf-syntax-ns#"
    xmlns:svg="http://www.w3.org/2000/svg"
    xmlns:xlink="http://www.w3.org/1999/xlink"
    xmlns="http://www.w3.org/2000/svg"
    width="101.766664896"
    height="84.1220534332"
    viewBox="0, 0, 101.766664896, 84.1220534332"
    preserveAspectRatio="none"
    id="svg2">
   <defs
       id="defs_17801A7F"/>
   <metadata
       id="metadata7">
      <rdf:RDF>
         <cc:Work
             rdf:about="">
            <dc:format>image/svg+xml</dc:format>
            <dc:type rdf:resource="http://purl.org/dc/dcmitype/StillImage"/>
            <dc:title></dc:title>
         </cc:Work>
      </rdf:RDF>
   </metadata>
   <g
       id="layer_Paper"
       style="fill:#000000;fill-opacity:1;stroke:#000000;stroke-opacity:1;fill-rule:nonzero;stroke-linecap:square;stroke-linejoin:miter;stroke-width:1;stroke-miterlimit:10">
      <path
          style="fill:#EBFFED;stroke:none"
          id="B643F74F"
          d="M69.7980989427,80.0692346955 C81.2040989427,70.1842346955 80.4090989427,46.6572346955 71.2150989427,45.0572346955 C63.5560989427,43.7292346955 59.2720989427,51.7672346955 55.3000989427,55.6112346955 C50.7080989427,60.0562346955 43.2890989427,60.8112346955 38.2290989427,57.1462346955
C36.1280989427,55.6182346955 26.8980989427,46.4952346955 17.7830989427,49.2082346955 C13.1590989427,50.5862346955 11.0870989427,53.6892346955 10.2460989427,57.7472346955 C7.437098942742,71.2432346955 18.1450989427,72.6672346955 22.8970989427,72.8072346955
C27.3560989427,72.9322346955 31.6900989427,73.5982346955 35.7740989427,75.4342346955 C46.0200989427,79.9402346955 62.0600989427,86.7722346955 69.7980989427,80.0692346955 z"/>
      <path
          style="fill:#010002;stroke:#EBFFED;stroke-linecap:butt;stroke-miterlimit:4"
          id="B943F74F"
          d="M101.222068031,47.3705886757 C101.712068031,50.4235886757 98.108068031,53.5365886757 93.177068031,54.3275886757 C88.245068031,55.1185886757 83.847068031,53.2935886757 83.357068031,50.2445886757 C82.867068031,47.1915886757 86.471068031,44.0815886757 91.402068031,43.2875886757
C96.334068031,42.4995886757 100.732068031,44.3245886757 101.222068031,47.3705886757 z M91.896068031,65.2075886756 C88.442068031,65.3935886757 85.551068031,63.8185886757 85.433068031,61.6855886757 C85.318068031,59.5485886757 88.024068031,57.6705886757 91.478068031,57.4805886757
C94.9320680309,57.2905886758 97.823068031,58.8725886757 97.941068031,61.0025886757 C98.055068031,63.1355886757 95.349068031,65.0175886757 91.896068031,65.2075886756 z M91.896068031,65.2075886756 C86.603068031,74.3225886757 84.251068031,73.0415886757 84.158068031,71.3055886757
C84.065068031,69.5695886757 86.259068031,68.0485886757 89.065068031,67.8945886757 C91.871068031,67.7405886757 94.219068031,69.0185886757 94.315068031,70.7545886757 C94.412068031,72.4905886757 92.211068031,74.0185886757 89.405068031,74.1685886757
z M85.261068031,79.6945886757 C83.189068031,79.5475886757 81.582068031,78.3885886757 81.675068031,77.1065886757 C81.764068031,75.8255886757 83.518068031,74.9055886757 85.590068031,75.0525886757 C87.662068031,75.1995886757 89.269068031,76.3555886757 89.176068031,77.6405886757
C89.086068031,78.9175886757 87.333068031,79.8415886757 85.261068031,79.6945886757 z M80.372068031,83.6095886757 C78.719068031,83.4945886757 77.437068031,82.5685886757 77.509068031,81.5445886757 C77.584068031,80.5245886757 78.983068031,79.7875886757 80.637068031,79.9015886757
C82.290068031,80.0195886757 83.572068031,80.9465886757 83.500068031,81.9705886757 C83.425068031,82.9945886757 82.022068031,83.7275886757 80.372068031,83.6095886757 z"/>
      <path
          style="fill:#EBFFED;stroke:#EBFFED;stroke-linecap:butt;stroke-miterlimit:4"
          id="6C43F74F"
          d="M61.9327388016,43.5334786374 C71.1267388016,41.9334786374 71.9177388016,18.4064786374 60.5157388016,8.525478637353 C52.7787388016,1.822478637353 36.7347388016,8.647478637353 26.4917388016,13.1604786374
C22.4047388016,14.9964786374 18.0777388016,15.6584786374 13.6187388016,15.7874786374 C8.865738801602,15.9274786374 -1.842261198398,17.3554786374 0.960738801602,30.8474786374 C1.805738801602,34.9054786374 3.873738801602,38.0084786374 8.501738801602,39.3834786374
C17.6167388016,42.0964786374 26.8467388016,32.9774786374 28.9477388016,31.4494786374 C34.0077388016,27.7814786374 41.4237388016,28.5364786374 46.0187388016,32.9814786374 C49.9897388016,36.8234786374 54.2737388016,44.8614786374 61.9327388016,43.5334786374
z"/>
      <path
          style="fill:#010002;stroke:#EBFFED;stroke-linecap:butt;stroke-miterlimit:4"
          id="1F43F74F"
          d="M85.0495964357,29.7904517974 C89.9815964358,30.5854517974 93.5855964357,33.6984517974 93.0945964357,36.7444517974 C92.6045964357,39.7904517974 88.2095964357,41.6184517974 83.2745964358,40.8274517974 C78.3425964357,40.0324517974 74.7385964357,36.9194517974 75.2295964357,33.8734517974
C75.7195964357,30.8244517974 80.1145964357,28.9994517974 85.0495964357,29.7904517974 z M83.3565964357,26.6514517974 C79.9025964357,26.4654517974 77.1975964357,24.5794517974 77.3155964357,22.4464517974 C77.4305964357,20.3094517974 80.3255964357,18.7314517974 83.7785964357,18.9214517974
C87.2325964357,19.1114517974 89.9375964357,20.9934517974 89.8195964357,23.1264517974 C89.7025964357,25.2594517974 86.8065964357,26.8414517974 83.3565964357,26.6514517974 z M80.9375964357,16.2304517974 C78.1315964357,16.0764517974 75.9375964357,14.5524517974 76.0305964357,12.8194517974
C76.1235964357,11.0904517974 78.4745964357,9.80945179743 81.2775964357,9.96345179743 C84.0835964357,10.1134517974 86.2805964357,11.6414517974 86.1875964357,13.3744517974 C86.0915964357,15.1034517974 83.7395964357,16.3804517974 80.9375964357,16.2304517974
z M77.4665964357,9.07245179743 C75.3945964357,9.21945179743 73.6405964357,8.29945179743 73.5515964357,7.02145179743 C73.4625964357,5.74345179743 75.0685964357,4.58445179743 77.1415964357,4.43745179743 C79.2145964357,4.29045179743 80.9675964357,5.21045179743 81.0565964357,6.48845179743
C81.1455964357,7.76945179743 79.5385964357,8.92545179743 77.4665964357,9.07245179743 z M72.5055964357,4.21245179743 C70.8525964357,4.33045179743 69.4495964357,3.59645179743 69.3775964357,2.57345179743 C69.3055964357,1.55345179743 70.5875964357,0.63045179743 72.2405964357,0.51245179743
C73.8935964357,0.39445179743 75.2965964357,1.12845179743 75.3685964357,2.14845179743 C75.4435964357,3.17145179743 74.1625964357,4.09445179743 72.5055964357,4.21245179743 z"/>
   </g>
</svg>
