<?xml version="1.0" encoding="iso-8859-1"?>
<!-- Generator: Adobe Illustrator 19.0.0, SVG Export Plug-In . SVG Version: 6.00 Build 0)  -->
<svg version="1.1" id="Capa_1" xmlns="http://www.w3.org/2000/svg" xmlns:xlink="http://www.w3.org/1999/xlink" x="0px" y="0px"
	 viewBox="0 0 512.001 512.001" style="enable-background:new 0 0 512.001 512.001;" xml:space="preserve">
<g>
	<g>
		<path d="M502,452H367.001v-30c0-5.522-4.477-10-10-10h-6.987l-22.917-219.999h8.904c5.523,0,10-4.478,10-10v-40
			c0-5.522-4.477-10-10-10h-10c0,0-0.004-70.061-0.005-70.092c-0.028-2.676-1.279-5.583-3.446-7.464l-60-52
			c-3.759-3.258-9.34-3.258-13.099,0l-60,52c-2.15,1.866-3.419,4.624-3.446,7.464c0,0.031-0.005,70.093-0.005,70.093h-10
			c-5.523,0-10,4.478-10,10v40c0,5.522,4.477,10,10,10h8.904l-22.917,219.999H155c-5.523,0-10,4.478-10,10v30h-33
			c-5.523,0-10,4.478-10,10v40c0,5.522,4.477,10,10,10h390c5.523,0,10-4.478,10-10v-40C512,456.478,507.523,452,502,452z
			 M256.001,23.236l33.193,28.766h-66.385L256.001,23.236z M306.001,72.002v60h-20v-60H306.001z M266.001,72.002v60h-20v-60H266.001
			z M206.002,72.002h20v60h-20V72.002z M186.002,152.002h139.999v20H186.002V152.002z M309.072,212.002h-106.14l2.083-20h101.974
			L309.072,212.002z M200.848,232.002h110.307l18.75,179.999H310.02l-5.072-49.029c-0.568-5.493-5.491-9.493-10.976-8.918
			c-5.494,0.568-9.486,5.482-8.918,10.977l4.859,46.97h-67.862l5.87-58.66c0.26-2.66-0.52-5.26-2.22-7.33
			c-1.69-2.06-4.08-3.35-6.74-3.61c-2.8-0.279-5.6,0.631-7.69,2.511c-1.85,1.67-3.01,3.96-3.26,6.439l-6.06,60.65h-19.854
			L200.848,232.002z M165.002,432h181.999v20H165.002V432z M492,492H122.002v-20H492V492z"/>
	</g>
</g>
<g>
	<g>
		<path d="M222.941,302.602c-2.81-0.28-5.6,0.63-7.69,2.51c-1.85,1.671-3.01,3.96-3.25,6.44c-0.55,5.489,3.461,10.399,8.95,10.949
			c0.33,0.03,0.67,0.05,1.01,0.05c2.46,0,4.84-0.92,6.68-2.57c1.85-1.67,3.01-3.96,3.26-6.439
			C232.441,308.062,228.431,303.151,222.941,302.602z"/>
	</g>
</g>
<g>
	<g>
		<path d="M159.357,52.584l-145.999-52C8.157-1.272,2.436,1.446,0.582,6.647C-1.271,11.85,1.445,17.57,6.648,19.423
			c0,0,145.967,51.988,145.999,52c5.007,1.783,10.925-0.87,12.775-6.064C167.275,60.156,164.56,54.436,159.357,52.584z"/>
	</g>
</g>
<g>
	<g>
		<path d="M116.002,92.002H10.003c-5.51,0-10,4.49-10,10s4.49,10,10,10h105.999c5.51,0,10-4.49,10-10S121.512,92.002,116.002,92.002
			z"/>
	</g>
</g>
<g>
	<g>
		<path d="M156.002,92.002c-5.51,0-10,4.49-10,10s4.49,10,10,10s10-4.49,10-10S161.512,92.002,156.002,92.002z"/>
	</g>
</g>
<g>
	<g>
		<path d="M145.247,138.188c-2.106-5.105-7.953-7.535-13.059-5.43l-125.999,52c-5.105,2.107-7.536,7.954-5.429,13.059
			c1.592,3.858,5.318,6.188,9.248,6.188c1.271,0,129.81-52.758,129.81-52.758C144.922,149.139,147.354,143.292,145.247,138.188z"/>
	</g>
</g>
<g>
	<g>
		<path d="M38.824,52.169l-27-5C6.394,46.161,1.176,49.75,0.17,55.181c-1.006,5.431,2.581,10.649,8.012,11.654
			c0,0,28.228,5.169,28.832,5.169c4.727,0,8.93-3.366,9.822-8.181C47.841,58.392,44.254,53.175,38.824,52.169z"/>
	</g>
</g>
<g>
	<g>
		<path d="M46.836,140.181c-1.006-5.431-6.224-9.016-11.654-8.012l-27,5c-5.431,1.006-9.018,6.224-8.012,11.654
			c0.892,4.816,5.095,8.181,9.822,8.181c0.604,0,28.832-5.169,28.832-5.169C44.255,150.829,47.842,145.611,46.836,140.181z"/>
	</g>
</g>
<g>
</g>
<g>
</g>
<g>
</g>
<g>
</g>
<g>
</g>
<g>
</g>
<g>
</g>
<g>
</g>
<g>
</g>
<g>
</g>
<g>
</g>
<g>
</g>
<g>
</g>
<g>
</g>
<g>
</g>
</svg>
